<?xml version="1.0" encoding="utf-8"?>
<!-- Generator: Adobe Illustrator 28.0.0, SVG Export Plug-In . SVG Version: 6.00 Build 0)  -->
<svg version="1.1" id="Calque_1" xmlns="http://www.w3.org/2000/svg" xmlns:xlink="http://www.w3.org/1999/xlink" x="0px" y="0px"
	 viewBox="0 0 1366 1024" style="enable-background:new 0 0 1366 1024;" xml:space="preserve">
<style type="text/css">
	.st0{fill:#404040;}
	.st1{fill:#404040;fill-opacity:0.7;}
	.st2{fill:#404040;fill-opacity:0.8;}
	.st3{fill:#404040;fill-opacity:0.5;}
	.st4{fill:#404040;fill-opacity:0.4;}
	.st5{fill:#404040;fill-opacity:0.3;}
	.st6{clip-path:url(#SVGID_00000080919097754871586570000004290046576795445687_);}
	.st7{fill:#FFFFFF;filter:url(#Adobe_OpacityMaskFilter);}
	.st8{mask:url(#mask0_0_1_00000159429152858013406370000013078148360564673417_);}
	.st9{fill:#FFFFFF;filter:url(#Adobe_OpacityMaskFilter_00000001650803880282161910000003962825641912787585_);}
	.st10{mask:url(#mask1_0_1_00000085249011681064629170000007587652950827872651_);}
	.st11{fill:#FFFFFF;filter:url(#Adobe_OpacityMaskFilter_00000031197454795195329700000007347189590617724818_);}
	.st12{mask:url(#mask2_0_1_00000023990624693570157140000006405397372077176495_);}
	.st13{fill:#FFFFFF;filter:url(#Adobe_OpacityMaskFilter_00000172406367967821638370000004498303743910169766_);}
	.st14{mask:url(#mask3_0_1_00000133492387103323899620000000746840268847438523_);}
	.st15{fill:#FFFFFF;filter:url(#Adobe_OpacityMaskFilter_00000008834700946449365810000017454104171265411755_);}
	.st16{mask:url(#mask4_0_1_00000116224553604443560550000017413633147596586122_);}
	.st17{fill:#FFFFFF;filter:url(#Adobe_OpacityMaskFilter_00000083057736204125743530000004976962067266116248_);}
	.st18{mask:url(#mask5_0_1_00000035512910878527463700000012322325797871926459_);}
	.st19{fill:#FFFFFF;}
	.st20{fill:#FFFFFF;filter:url(#Adobe_OpacityMaskFilter_00000069391731363814109390000008460961150038572202_);}
	.st21{mask:url(#mask6_0_1_00000168803475512553446830000014790777874272369343_);}
	.st22{fill:#FFFFFF;filter:url(#Adobe_OpacityMaskFilter_00000040541956184534350990000001753848468519813281_);}
	.st23{mask:url(#mask7_0_1_00000115502614190716862210000002500555316462517436_);}
	.st24{fill:#FFFFFF;filter:url(#Adobe_OpacityMaskFilter_00000101806266972127157630000007083708190832957624_);}
	.st25{mask:url(#mask8_0_1_00000105408216075225045300000004367437201089045434_);}
	.st26{fill:#FFFFFF;filter:url(#Adobe_OpacityMaskFilter_00000117642222193147783060000005245764403572005513_);}
	.st27{mask:url(#mask9_0_1_00000005256974574416172370000008472293241823322765_);}
	.st28{fill:#FFFFFF;filter:url(#Adobe_OpacityMaskFilter_00000011752834093120209300000016604889711514393487_);}
	.st29{mask:url(#mask10_0_1_00000047036701366516513510000011285773592849215662_);}
	.st30{fill:#FFFFFF;filter:url(#Adobe_OpacityMaskFilter_00000022533988446480056200000009669746087861951663_);}
	.st31{mask:url(#mask11_0_1_00000114770479607475134000000012361602439728808374_);}
	.st32{fill:#FFFFFF;filter:url(#Adobe_OpacityMaskFilter_00000054255540859665862130000004891796621764802224_);}
	.st33{mask:url(#mask12_0_1_00000134943071732667041270000005741644713234237880_);}
	.st34{fill:#FFFFFF;filter:url(#Adobe_OpacityMaskFilter_00000014607936237175761350000008764594512821910951_);}
	.st35{mask:url(#mask13_0_1_00000178203979085547617130000014448889532788798384_);}
	.st36{fill:#FFFFFF;filter:url(#Adobe_OpacityMaskFilter_00000139977364169636358080000002726450647947288457_);}
	.st37{mask:url(#mask14_0_1_00000176039347678062273280000010313632636375988404_);}
	.st38{fill:#FFFFFF;filter:url(#Adobe_OpacityMaskFilter_00000065042050329760634270000015659259517942759857_);}
	.st39{mask:url(#mask15_0_1_00000168090024511240076130000007263273995981940355_);}
	.st40{fill:#FFFFFF;filter:url(#Adobe_OpacityMaskFilter_00000157279856565929037680000015299947175043920806_);}
	.st41{mask:url(#mask16_0_1_00000008828240285204734080000014788172330090541744_);}
	.st42{fill:#FFFFFF;filter:url(#Adobe_OpacityMaskFilter_00000065045927655044428440000010174199933408285612_);}
	.st43{mask:url(#mask17_0_1_00000023275080074740842390000007945235139242829502_);}
</style>
<g>
	<path class="st0" d="M63.4,731.8c-24.2-24.2-63.5-24.2-87.7,0c-24.2,24.2-24.2,63.5,0,87.7c24.2,24.2,63.5,24.2,87.7,0
		C87.5,795.3,87.5,756.1,63.4,731.8z M55.4,811.7l-71.9-71.9c19.9-19.9,52-19.9,71.9,0C75.3,759.5,75.3,791.8,55.4,811.7z"/>
	<path class="st1" d="M567.5,605.6c19.3,0,35-15.9,35-35.5s-15.7-35.5-35-35.5s-35,15.9-35,35.5S548.2,605.6,567.5,605.6z"/>
	<path class="st2" d="M384,267.6c-10.8,0-19.5,8.7-19.5,19.5s8.7,19.5,19.5,19.5s19.5-8.7,19.5-19.5S394.8,267.6,384,267.6z
		 M384,303.1c-8.8,0-16-7.2-16-16s7.2-16,16-16V303.1z"/>
	<path class="st3" d="M116,413.6c-10.8,0-19.5,8.7-19.5,19.5s8.7,19.5,19.5,19.5s19.5-8.7,19.5-19.5S126.8,413.6,116,413.6z
		 M116,449.1c-8.8,0-16-7.2-16-16s7.2-16,16-16V449.1z"/>
	<path class="st1" d="M78,70.6c35.1,0,63.5-28.4,63.5-63.5c0-35.1-28.4-63.5-63.5-63.5c-35.1,0-63.5,28.4-63.5,63.5
		C14.5,42.2,42.9,70.6,78,70.6z M78-44.9c28.7,0,52.1,23.3,52.1,52.1c0,28.7-23.3,52.1-52.1,52.1V-44.9z"/>
	<path class="st1" d="M865,547.6c35.1,0,63.5-28.4,63.5-63.5c0-35.1-28.4-63.5-63.5-63.5s-63.5,28.4-63.5,63.5
		C801.5,519.2,829.9,547.6,865,547.6z M865,432.1c28.7,0,52.1,23.3,52.1,52.1c0,28.7-23.3,52.1-52.1,52.1V432.1z"/>
	<path class="st1" d="M1225.5,906.6c29.3,0,53-23.7,53-53c0-29.3-23.7-53-53-53s-53,23.7-53,53
		C1172.5,882.9,1196.2,906.6,1225.5,906.6z M1225.5,810.2c24,0,43.5,19.5,43.5,43.5c0,24-19.5,43.5-43.5,43.5V810.2z"/>
	<path class="st1" d="M614.5,99.6c0-22.7-18.3-41-41-41c-22.7,0-41,18.3-41,41c0,22.7,18.3,41,41,41
		C596.2,140.6,614.5,122.3,614.5,99.6z M539.9,99.6c0-18.6,15.1-33.6,33.6-33.6c18.6,0,33.6,15.1,33.6,33.6H539.9z"/>
	<path class="st3" d="M353.1,787.2c13.9-13.9,13.9-36.3,0-50.2c-13.9-13.9-36.3-13.9-50.2,0c-13.9,13.9-13.9,36.3,0,50.2
		C316.8,801.1,339.2,801.1,353.1,787.2z M307.4,741.6c11.4-11.4,29.8-11.4,41.2,0c11.4,11.4,11.4,29.8,0,41.2L307.4,741.6z"/>
	<path class="st4" d="M479.5,954.4c-32.3-18.6-73.6-7.6-92.2,24.7c-18.6,32.3-7.6,73.6,24.7,92.2c32.3,18.6,73.6,7.6,92.2-24.7
		C522.8,1014.3,511.8,973,479.5,954.4z M418.1,1060.7c-26.5-15.3-35.5-49.2-20.3-75.6c15.3-26.5,49.2-35.5,75.6-20.3L418.1,1060.7z"
		/>
	<path class="st0" d="M658.5,893.6c0-27.4-22.2-49.7-49.7-49.8c-27.4-0.1-49.7,22.1-49.7,49.6c0,27.4,22.2,49.7,49.7,49.8
		C636.3,943.2,658.5,921,658.5,893.6z"/>
	<path class="st0" d="M885.5,153.8c0-16-13-29-29-29.1s-29,12.9-29,28.9s13,29,29,29.1S885.5,169.8,885.5,153.8z"/>
	<path class="st0" d="M222.5,856.6c-13.8,0-25,11.2-25,25s11.2,25,25,25c13.8,0,25-11.2,25-25S236.3,856.6,222.5,856.6z
		 M222.5,902.1c-11.3,0-20.5-9.2-20.5-20.5s9.2-20.5,20.5-20.5V902.1z"/>
	<path class="st0" d="M966.5,713.6c0,13.8,11.2,25,25,25c13.8,0,25-11.2,25-25s-11.2-25-25-25C977.7,688.6,966.5,699.8,966.5,713.6z
		 M1012,713.6c0,11.3-9.2,20.5-20.5,20.5c-11.3,0-20.5-9.2-20.5-20.5H1012z"/>
	<path class="st0" d="M715.5,289.6c-13.8,0-25,11.2-25,25s11.2,25,25,25c13.8,0,25-11.2,25-25S729.3,289.6,715.5,289.6z
		 M715.5,335.1c-11.3,0-20.5-9.2-20.5-20.5s9.2-20.5,20.5-20.5V335.1z"/>
	<path class="st0" d="M1041.5,74.6c-13.8,0-25,11.2-25,25c0,13.8,11.2,25,25,25s25-11.2,25-25C1066.5,85.8,1055.3,74.6,1041.5,74.6z
		 M1041.5,120.1c-11.3,0-20.5-9.2-20.5-20.5c0-11.3,9.2-20.5,20.5-20.5V120.1z"/>
	<path class="st5" d="M596.5,732.6c0,13.8,11.2,25,25,25s25-11.2,25-25s-11.2-25-25-25C607.7,707.6,596.5,718.8,596.5,732.6z
		 M642,732.6c0,11.3-9.2,20.5-20.5,20.5s-20.5-9.2-20.5-20.5H642z"/>
	<path class="st5" d="M860.5,938.6c0,13.8,11.2,25,25,25s25-11.2,25-25s-11.2-25-25-25C871.7,913.6,860.5,924.8,860.5,938.6z
		 M906,938.6c0,11.3-9.2,20.5-20.5,20.5s-20.5-9.2-20.5-20.5H906z"/>
	<path class="st0" d="M317.5,105.6c-19.9,0-36,15.7-36,35s16.1,35,36,35s36-15.7,36-35S337.4,105.6,317.5,105.6z M317.5,169.3
		c-16.3,0-29.5-12.9-29.5-28.7s13.2-28.7,29.5-28.7V169.3z"/>
	<path class="st0" d="M1202.2,399.4c14.1-14.1,14.4-36.5,0.7-50.2c-13.7-13.7-36.1-13.4-50.2,0.7c-14.1,14.1-14.4,36.5-0.7,50.2
		C1165.7,413.8,1188.2,413.4,1202.2,399.4z M1157.2,354.3c11.5-11.5,30-11.8,41.2-0.6s10.9,29.6-0.6,41.2L1157.2,354.3z"/>
	<path class="st0" d="M1278.5,70.6c-19.9,0-36,15.7-36,35c0,19.3,16.1,35,36,35s36-15.7,36-35C1314.5,86.3,1298.4,70.6,1278.5,70.6z
		 M1278.5,134.3c-16.3,0-29.5-12.9-29.5-28.7c0-15.8,13.2-28.7,29.5-28.7V134.3z"/>
	<g>
		<defs>
			<rect id="SVGID_1_" x="17.5" y="945.6" width="127" height="55"/>
		</defs>
		<clipPath id="SVGID_00000039115960313505618930000017095235077790124726_">
			<use xlink:href="#SVGID_1_"  style="overflow:visible;"/>
		</clipPath>
		<g style="clip-path:url(#SVGID_00000039115960313505618930000017095235077790124726_);">
			<path class="st0" d="M75.2,969.6c0-3.2-2.7-5.8-5.9-5.8s-5.9,2.6-5.9,5.8c0,3.2,2.7,5.8,5.9,5.8S75.2,972.8,75.2,969.6z"/>
			<path class="st0" d="M75.2,969.6c0-3.2-2.7-5.8-5.9-5.8s-5.9,2.6-5.9,5.8c0,3.2,2.7,5.8,5.9,5.8S75.2,972.8,75.2,969.6z"/>
			<defs>
				<filter id="Adobe_OpacityMaskFilter" filterUnits="userSpaceOnUse" x="17.5" y="945.6" width="191.1" height="55.2">
					<feColorMatrix  type="matrix" values="1 0 0 0 0  0 1 0 0 0  0 0 1 0 0  0 0 0 1 0"/>
				</filter>
			</defs>
			
				<mask maskUnits="userSpaceOnUse" x="17.5" y="945.6" width="191.1" height="55.2" id="mask0_0_1_00000159429152858013406370000013078148360564673417_">
				<path class="st7" d="M75.2,969.6c0-3.2-2.7-5.8-5.9-5.8s-5.9,2.6-5.9,5.8c0,3.2,2.7,5.8,5.9,5.8S75.2,972.8,75.2,969.6z"/>
			</mask>
			<g class="st8">
				<path class="st0" d="M208.6,945.6H17.5v55.2h191.1V945.6z"/>
				<path class="st0" d="M208.6,945.6H17.5v55.2h191.1V945.6z"/>
				<defs>
					
						<filter id="Adobe_OpacityMaskFilter_00000129195094296007019530000007735764899227093694_" filterUnits="userSpaceOnUse" x="58.7" y="958.9" width="21.2" height="21.1">
						<feColorMatrix  type="matrix" values="1 0 0 0 0  0 1 0 0 0  0 0 1 0 0  0 0 0 1 0"/>
					</filter>
				</defs>
				
					<mask maskUnits="userSpaceOnUse" x="58.7" y="958.9" width="21.2" height="21.1" id="mask1_0_1_00000085249011681064629170000007587652950827872651_">
					<path style="fill:#FFFFFF;filter:url(#Adobe_OpacityMaskFilter_00000129195094296007019530000007735764899227093694_);" d="
						M208.6,945.6H17.5v55.2h191.1V945.6z"/>
				</mask>
				<g class="st10">
					<path class="st0" d="M58.7,958.9h21.2V980H58.7V958.9z"/>
				</g>
			</g>
			<path class="st0" d="M75.2,987.5c0-3.2-2.7-5.8-5.9-5.8s-5.9,2.6-5.9,5.8c0,3.2,2.7,5.8,5.9,5.8S75.2,990.8,75.2,987.5z"/>
			<path class="st0" d="M75.2,987.5c0-3.2-2.7-5.8-5.9-5.8s-5.9,2.6-5.9,5.8c0,3.2,2.7,5.8,5.9,5.8S75.2,990.8,75.2,987.5
				C75.2,987.6,75.2,987.5,75.2,987.5z"/>
			<defs>
				
					<filter id="Adobe_OpacityMaskFilter_00000147193027087005932880000014027545146861362613_" filterUnits="userSpaceOnUse" x="17.5" y="945.6" width="191.1" height="55.2">
					<feColorMatrix  type="matrix" values="1 0 0 0 0  0 1 0 0 0  0 0 1 0 0  0 0 0 1 0"/>
				</filter>
			</defs>
			
				<mask maskUnits="userSpaceOnUse" x="17.5" y="945.6" width="191.1" height="55.2" id="mask2_0_1_00000023990624693570157140000006405397372077176495_">
				<path style="fill:#FFFFFF;filter:url(#Adobe_OpacityMaskFilter_00000147193027087005932880000014027545146861362613_);" d="
					M75.2,987.5c0-3.2-2.7-5.8-5.9-5.8s-5.9,2.6-5.9,5.8c0,3.2,2.7,5.8,5.9,5.8S75.2,990.8,75.2,987.5
					C75.2,987.6,75.2,987.5,75.2,987.5z"/>
			</mask>
			<g class="st12">
				<path class="st0" d="M208.6,945.6H17.5v55.2h191.1V945.6z"/>
				<path class="st0" d="M208.6,945.6H17.5v55.2h191.1V945.6z"/>
				<defs>
					
						<filter id="Adobe_OpacityMaskFilter_00000026852692002384528630000007468578930202003135_" filterUnits="userSpaceOnUse" x="58.7" y="977" width="21.2" height="21.1">
						<feColorMatrix  type="matrix" values="1 0 0 0 0  0 1 0 0 0  0 0 1 0 0  0 0 0 1 0"/>
					</filter>
				</defs>
				
					<mask maskUnits="userSpaceOnUse" x="58.7" y="977" width="21.2" height="21.1" id="mask3_0_1_00000133492387103323899620000000746840268847438523_">
					<path style="fill:#FFFFFF;filter:url(#Adobe_OpacityMaskFilter_00000026852692002384528630000007468578930202003135_);" d="
						M208.6,945.6H17.5v55.2h191.1V945.6z"/>
				</mask>
				<g class="st14">
					<path class="st0" d="M58.7,977h21.2v21.1H58.7V977z"/>
				</g>
			</g>
			<path class="st0" d="M75.2,951.5c0-3.2-2.7-5.8-5.9-5.8s-5.9,2.6-5.9,5.8c0,3.2,2.7,5.8,5.9,5.8S75.2,954.7,75.2,951.5z"/>
			<path class="st0" d="M75.2,951.5c0-3.2-2.7-5.8-5.9-5.8s-5.9,2.6-5.9,5.8c0,3.2,2.7,5.8,5.9,5.8S75.2,954.7,75.2,951.5
				C75.2,951.5,75.2,951.5,75.2,951.5z"/>
			<defs>
				
					<filter id="Adobe_OpacityMaskFilter_00000155849964519580654120000010553018638922942637_" filterUnits="userSpaceOnUse" x="17.5" y="940.9" width="191.1" height="59.9">
					<feColorMatrix  type="matrix" values="1 0 0 0 0  0 1 0 0 0  0 0 1 0 0  0 0 0 1 0"/>
				</filter>
			</defs>
			
				<mask maskUnits="userSpaceOnUse" x="17.5" y="940.9" width="191.1" height="59.9" id="mask4_0_1_00000116224553604443560550000017413633147596586122_">
				<path style="fill:#FFFFFF;filter:url(#Adobe_OpacityMaskFilter_00000155849964519580654120000010553018638922942637_);" d="
					M75.2,951.5c0-3.2-2.7-5.8-5.9-5.8s-5.9,2.6-5.9,5.8c0,3.2,2.7,5.8,5.9,5.8S75.2,954.7,75.2,951.5
					C75.2,951.5,75.2,951.5,75.2,951.5z"/>
			</mask>
			<g class="st16">
				<path class="st0" d="M208.6,945.6H17.5v55.2h191.1V945.6z"/>
				<path class="st0" d="M208.6,945.6H17.5v55.2h191.1V945.6z"/>
				<defs>
					
						<filter id="Adobe_OpacityMaskFilter_00000138575077568623871060000010599674303560962697_" filterUnits="userSpaceOnUse" x="58.7" y="940.9" width="21.2" height="21.1">
						<feColorMatrix  type="matrix" values="1 0 0 0 0  0 1 0 0 0  0 0 1 0 0  0 0 0 1 0"/>
					</filter>
				</defs>
				
					<mask maskUnits="userSpaceOnUse" x="58.7" y="940.9" width="21.2" height="21.1" id="mask5_0_1_00000035512910878527463700000012322325797871926459_">
					<path style="fill:#FFFFFF;filter:url(#Adobe_OpacityMaskFilter_00000138575077568623871060000010599674303560962697_);" d="
						M208.6,945.6H17.5v55.2h191.1V945.6z"/>
				</mask>
				<g class="st18">
					<path class="st0" d="M58.7,940.9h21.2V962H58.7V940.9z"/>
				</g>
			</g>
			<path class="st19" d="M23.7,992.6h-5.3l-1-15.9v-31h7.2v31L23.7,992.6z"/>
			<path class="st19" d="M23.7,992.6h-5.3l-1-15.9v-31h7.2v31L23.7,992.6z"/>
			<defs>
				
					<filter id="Adobe_OpacityMaskFilter_00000062903337783775768480000002745099823126421163_" filterUnits="userSpaceOnUse" x="12.7" y="940.9" width="195.8" height="59.9">
					<feColorMatrix  type="matrix" values="1 0 0 0 0  0 1 0 0 0  0 0 1 0 0  0 0 0 1 0"/>
				</filter>
			</defs>
			
				<mask maskUnits="userSpaceOnUse" x="12.7" y="940.9" width="195.8" height="59.9" id="mask6_0_1_00000168803475512553446830000014790777874272369343_">
				<path style="fill:#FFFFFF;filter:url(#Adobe_OpacityMaskFilter_00000062903337783775768480000002745099823126421163_);" d="
					M23.7,992.6h-5.3l-1-15.9v-31h7.2v31L23.7,992.6z"/>
			</mask>
			<g class="st21">
				<path class="st19" d="M208.6,945.6H17.5v55.2h191.1V945.6z"/>
				<path class="st19" d="M208.6,945.6H17.5v55.2h191.1V945.6z"/>
				<defs>
					
						<filter id="Adobe_OpacityMaskFilter_00000020379690080992065750000014917087968353850794_" filterUnits="userSpaceOnUse" x="12.7" y="940.9" width="16.7" height="56.3">
						<feColorMatrix  type="matrix" values="1 0 0 0 0  0 1 0 0 0  0 0 1 0 0  0 0 0 1 0"/>
					</filter>
				</defs>
				
					<mask maskUnits="userSpaceOnUse" x="12.7" y="940.9" width="16.7" height="56.3" id="mask7_0_1_00000115502614190716862210000002500555316462517436_">
					<path style="fill:#FFFFFF;filter:url(#Adobe_OpacityMaskFilter_00000020379690080992065750000014917087968353850794_);" d="
						M208.6,945.6H17.5v55.2h191.1V945.6z"/>
				</mask>
				<g class="st23">
					<path class="st19" d="M12.7,940.9h16.7v56.3H12.7V940.9z"/>
				</g>
			</g>
			<path class="st0" d="M53.5,992.6h-5.4l-0.8-15.9v-31h7.2v31L53.5,992.6z"/>
			<path class="st0" d="M53.5,992.6h-5.4l-0.8-15.9v-31h7.2v31L53.5,992.6z"/>
			<defs>
				
					<filter id="Adobe_OpacityMaskFilter_00000035500387346931360330000015503675503469803966_" filterUnits="userSpaceOnUse" x="17.5" y="940.9" width="191.1" height="59.9">
					<feColorMatrix  type="matrix" values="1 0 0 0 0  0 1 0 0 0  0 0 1 0 0  0 0 0 1 0"/>
				</filter>
			</defs>
			
				<mask maskUnits="userSpaceOnUse" x="17.5" y="940.9" width="191.1" height="59.9" id="mask8_0_1_00000105408216075225045300000004367437201089045434_">
				<path style="fill:#FFFFFF;filter:url(#Adobe_OpacityMaskFilter_00000035500387346931360330000015503675503469803966_);" d="
					M53.5,992.6h-5.4l-0.8-15.9v-31h7.2v31L53.5,992.6z"/>
			</mask>
			<g class="st25">
				<path class="st0" d="M208.6,945.6H17.5v55.2h191.1V945.6z"/>
				<path class="st0" d="M208.6,945.6H17.5v55.2h191.1V945.6z"/>
				<defs>
					
						<filter id="Adobe_OpacityMaskFilter_00000052105728010370713690000011528166876872867481_" filterUnits="userSpaceOnUse" x="42.5" y="940.9" width="16.7" height="56.3">
						<feColorMatrix  type="matrix" values="1 0 0 0 0  0 1 0 0 0  0 0 1 0 0  0 0 0 1 0"/>
					</filter>
				</defs>
				
					<mask maskUnits="userSpaceOnUse" x="42.5" y="940.9" width="16.7" height="56.3" id="mask9_0_1_00000005256974574416172370000008472293241823322765_">
					<path style="fill:#FFFFFF;filter:url(#Adobe_OpacityMaskFilter_00000052105728010370713690000011528166876872867481_);" d="
						M208.6,945.6H17.5v55.2h191.1V945.6z"/>
				</mask>
				<g class="st27">
					<path class="st0" d="M42.5,940.9h16.7v56.3H42.5V940.9z"/>
				</g>
			</g>
			<path class="st0" d="M143.6,992.6h-5.4l-0.8-17.4v-29.6h7.2v29.6L143.6,992.6z"/>
			<path class="st0" d="M143.6,992.6h-5.4l-0.8-17.4v-29.6h7.2v29.6L143.6,992.6z"/>
			<defs>
				
					<filter id="Adobe_OpacityMaskFilter_00000013179498985038482320000009702464118066164894_" filterUnits="userSpaceOnUse" x="17.5" y="940.9" width="191.1" height="59.9">
					<feColorMatrix  type="matrix" values="1 0 0 0 0  0 1 0 0 0  0 0 1 0 0  0 0 0 1 0"/>
				</filter>
			</defs>
			
				<mask maskUnits="userSpaceOnUse" x="17.5" y="940.9" width="191.1" height="59.9" id="mask10_0_1_00000047036701366516513510000011285773592849215662_">
				<path style="fill:#FFFFFF;filter:url(#Adobe_OpacityMaskFilter_00000013179498985038482320000009702464118066164894_);" d="
					M143.6,992.6h-5.4l-0.8-17.4v-29.6h7.2v29.6L143.6,992.6z"/>
			</mask>
			<g class="st29">
				<path class="st0" d="M208.6,945.6H17.5v55.2h191.1V945.6z"/>
				<path class="st0" d="M208.6,945.6H17.5v55.2h191.1V945.6z"/>
				<defs>
					
						<filter id="Adobe_OpacityMaskFilter_00000122697575278644492980000001410237119610900106_" filterUnits="userSpaceOnUse" x="132.6" y="940.9" width="16.7" height="56.3">
						<feColorMatrix  type="matrix" values="1 0 0 0 0  0 1 0 0 0  0 0 1 0 0  0 0 0 1 0"/>
					</filter>
				</defs>
				
					<mask maskUnits="userSpaceOnUse" x="132.6" y="940.9" width="16.7" height="56.3" id="mask11_0_1_00000114770479607475134000000012361602439728808374_">
					<path style="fill:#FFFFFF;filter:url(#Adobe_OpacityMaskFilter_00000122697575278644492980000001410237119610900106_);" d="
						M208.6,945.6H17.5v55.2h191.1V945.6z"/>
				</mask>
				<g class="st31">
					<path class="st0" d="M132.6,940.9h16.7v56.3h-16.7V940.9z"/>
				</g>
			</g>
			<path class="st0" d="M93.1,992.6h-7.2l19.1-46.9h7L93.1,992.6z"/>
			<path class="st0" d="M93.1,992.6h-7.2l19.1-46.9h7L93.1,992.6z"/>
			<defs>
				
					<filter id="Adobe_OpacityMaskFilter_00000047058831492445308070000010393341065781506723_" filterUnits="userSpaceOnUse" x="17.5" y="940.9" width="191.1" height="59.9">
					<feColorMatrix  type="matrix" values="1 0 0 0 0  0 1 0 0 0  0 0 1 0 0  0 0 0 1 0"/>
				</filter>
			</defs>
			
				<mask maskUnits="userSpaceOnUse" x="17.5" y="940.9" width="191.1" height="59.9" id="mask12_0_1_00000134943071732667041270000005741644713234237880_">
				<path style="fill:#FFFFFF;filter:url(#Adobe_OpacityMaskFilter_00000047058831492445308070000010393341065781506723_);" d="
					M93.1,992.6h-7.2l19.1-46.9h7L93.1,992.6z"/>
			</mask>
			<g class="st33">
				<path class="st0" d="M208.6,945.6H17.5v55.2h191.1V945.6z"/>
				<path class="st0" d="M208.6,945.6H17.5v55.2h191.1V945.6z"/>
				<defs>
					
						<filter id="Adobe_OpacityMaskFilter_00000130610260207485185210000001927497247497396872_" filterUnits="userSpaceOnUse" x="81.2" y="940.9" width="35.6" height="56.3">
						<feColorMatrix  type="matrix" values="1 0 0 0 0  0 1 0 0 0  0 0 1 0 0  0 0 0 1 0"/>
					</filter>
				</defs>
				
					<mask maskUnits="userSpaceOnUse" x="81.2" y="940.9" width="35.6" height="56.3" id="mask13_0_1_00000178203979085547617130000014448889532788798384_">
					<path style="fill:#FFFFFF;filter:url(#Adobe_OpacityMaskFilter_00000130610260207485185210000001927497247497396872_);" d="
						M208.6,945.6H17.5v55.2h191.1V945.6z"/>
				</mask>
				<g class="st35">
					<path class="st0" d="M81.2,940.9h35.6v56.3H81.2V940.9z"/>
				</g>
			</g>
			<path class="st19" d="M41.8,969.6c0-3.2-2.7-5.8-5.9-5.8c-3.2,0-5.9,2.6-5.9,5.8c0,3.2,2.7,5.8,5.9,5.8
				C39.2,975.4,41.8,972.8,41.8,969.6z"/>
			<path class="st19" d="M41.8,969.6c0-3.2-2.7-5.8-5.9-5.8c-3.2,0-5.9,2.6-5.9,5.8c0,3.2,2.7,5.8,5.9,5.8
				C39.2,975.4,41.8,972.8,41.8,969.6z"/>
			<defs>
				
					<filter id="Adobe_OpacityMaskFilter_00000021803667287878224050000003231086606187564976_" filterUnits="userSpaceOnUse" x="17.5" y="945.6" width="191.1" height="55.2">
					<feColorMatrix  type="matrix" values="1 0 0 0 0  0 1 0 0 0  0 0 1 0 0  0 0 0 1 0"/>
				</filter>
			</defs>
			
				<mask maskUnits="userSpaceOnUse" x="17.5" y="945.6" width="191.1" height="55.2" id="mask14_0_1_00000176039347678062273280000010313632636375988404_">
				<path style="fill:#FFFFFF;filter:url(#Adobe_OpacityMaskFilter_00000021803667287878224050000003231086606187564976_);" d="
					M41.8,969.6c0-3.2-2.7-5.8-5.9-5.8c-3.2,0-5.9,2.6-5.9,5.8c0,3.2,2.7,5.8,5.9,5.8C39.2,975.4,41.8,972.8,41.8,969.6z"/>
			</mask>
			<g class="st37">
				<path class="st19" d="M208.6,945.6H17.5v55.2h191.1V945.6z"/>
				<path class="st19" d="M208.6,945.6H17.5v55.2h191.1V945.6z"/>
				<defs>
					
						<filter id="Adobe_OpacityMaskFilter_00000037686857632083541050000001793913511704783035_" filterUnits="userSpaceOnUse" x="25.4" y="958.9" width="21.2" height="21.1">
						<feColorMatrix  type="matrix" values="1 0 0 0 0  0 1 0 0 0  0 0 1 0 0  0 0 0 1 0"/>
					</filter>
				</defs>
				
					<mask maskUnits="userSpaceOnUse" x="25.4" y="958.9" width="21.2" height="21.1" id="mask15_0_1_00000168090024511240076130000007263273995981940355_">
					<path style="fill:#FFFFFF;filter:url(#Adobe_OpacityMaskFilter_00000037686857632083541050000001793913511704783035_);" d="
						M208.6,945.6H17.5v55.2h191.1V945.6z"/>
				</mask>
				<g class="st39">
					<path class="st19" d="M25.4,958.9h21.2V980H25.4V958.9z"/>
				</g>
			</g>
			<path class="st0" d="M131.9,1000.5c-6.1,1-12.8-3.8-13.3-9.4c-0.7-5.7,3.8-10.2,9.3-9.4c3.2,0.5,5.4,3.5,4.9,6.7
				c-0.1,0.8-0.4,1.7-0.9,2.4c-2.5,3.5-7,2.7-9.5,2.1c-1.1-0.3-1.8-0.1-1.3,0.8c1.1,2.4,5.1,6.4,10.7,6L131.9,1000.5z"/>
			<path class="st0" d="M131.9,1000.5c-6.1,1-12.8-3.8-13.3-9.4c-0.7-5.7,3.8-10.2,9.3-9.4c3.2,0.5,5.4,3.5,4.9,6.7
				c-0.1,0.8-0.4,1.7-0.9,2.4c-2.5,3.5-7,2.7-9.5,2.1c-1.1-0.3-1.8-0.1-1.3,0.8c1.1,2.4,5.1,6.4,10.7,6L131.9,1000.5z"/>
			<defs>
				
					<filter id="Adobe_OpacityMaskFilter_00000160895603170744491860000007563503684494752896_" filterUnits="userSpaceOnUse" x="17.5" y="945.6" width="191.1" height="59.7">
					<feColorMatrix  type="matrix" values="1 0 0 0 0  0 1 0 0 0  0 0 1 0 0  0 0 0 1 0"/>
				</filter>
			</defs>
			
				<mask maskUnits="userSpaceOnUse" x="17.5" y="945.6" width="191.1" height="59.7" id="mask16_0_1_00000008828240285204734080000014788172330090541744_">
				<path style="fill:#FFFFFF;filter:url(#Adobe_OpacityMaskFilter_00000160895603170744491860000007563503684494752896_);" d="
					M131.9,1000.5c-6.1,1-12.8-3.8-13.3-9.4c-0.7-5.7,3.8-10.2,9.3-9.4c3.2,0.5,5.4,3.5,4.9,6.7c-0.1,0.8-0.4,1.7-0.9,2.4
					c-2.5,3.5-7,2.7-9.5,2.1c-1.1-0.3-1.8-0.1-1.3,0.8c1.1,2.4,5.1,6.4,10.7,6L131.9,1000.5z"/>
			</mask>
			<g class="st41">
				<path class="st0" d="M208.6,945.6H17.5v55.2h191.1V945.6z"/>
				<path class="st0" d="M208.6,945.6H17.5v55.2h191.1V945.6z"/>
				<defs>
					
						<filter id="Adobe_OpacityMaskFilter_00000140709304787753130890000010422848973181084343_" filterUnits="userSpaceOnUse" x="113.7" y="977" width="23.9" height="28.4">
						<feColorMatrix  type="matrix" values="1 0 0 0 0  0 1 0 0 0  0 0 1 0 0  0 0 0 1 0"/>
					</filter>
				</defs>
				
					<mask maskUnits="userSpaceOnUse" x="113.7" y="977" width="23.9" height="28.4" id="mask17_0_1_00000023275080074740842390000007945235139242829502_">
					<path style="fill:#FFFFFF;filter:url(#Adobe_OpacityMaskFilter_00000140709304787753130890000010422848973181084343_);" d="
						M208.6,945.6H17.5v55.2h191.1V945.6z"/>
				</mask>
				<g class="st43">
					<path class="st0" d="M113.7,977h23.9v28.4h-23.9V977z"/>
				</g>
			</g>
		</g>
	</g>
</g>
</svg>
